
<svg width="145" height="32" xmlns="http://www.w3.org/2000/svg" style="vector-effect: non-scaling-stroke;">

 <g fill="#000000">
  <path id="path4147-path-copy-2" d="m390.850184,7.677772c-29.232447,10.60957 -41.725023,10.60882 -71.569639,-0.003c-28.694183,-10.2027 -39.832638,-10.30098 -66.074401,-0.58008c-16.440825,6.09028 -23.387957,7.43476 -38.751805,7.50001c-15.997788,0.0679 -21.388196,-1.01139 -37.046204,-7.4209c-24.826204,-10.16247 -38.233009,-10.05987 -67.35224,0.50682c-29.232447,10.60811 -41.725042,10.60591 -71.569658,-0.006c-18.830553,-6.69549 -30.110753,-9.01091 -43.051458,-7.08398l0,15.61233c14.077248,-1.82885 26.675047,0.35481 43.539591,6.55958c29.218557,10.75001 39.822193,10.9232 67.379645,1.09277c30.837561,-11.00056 47.108824,-11.16319 73.955287,-0.73829c26.070703,10.12479 41.793181,10.1258 69.661099,0.012c27.514248,-9.98567 43.424578,-10.06953 69.798239,-0.36621c29.218538,10.75004 39.82223,10.92321 67.379664,1.09279c30.837598,-11.00056 47.108842,-11.16315 73.955287,-0.73829c26.070722,10.12177 41.793181,10.12579 69.661118,0.012c9.918778,-3.59979 18.322259,-5.89434 26.258629,-6.92578l0,-15.61233c-6.778449,1.00951 -14.002295,3.15941 -23.022924,6.50098c-16.440825,6.09029 -23.387919,7.43768 -38.751805,7.50293c-15.997788,0.0679 -21.382711,-1.01136 -37.0407,-7.42089c-12.413093,-5.08125 -21.975767,-7.59911 -32.07197,-7.52345c-10.096221,0.07525 -20.726158,2.74364 -35.285755,8.02699z"/>
 </g>
</svg>